<?xml version="1.0" standalone="no"?>
<!DOCTYPE svg PUBLIC "-//W3C//DTD SVG 20010904//EN"
 "http://www.w3.org/TR/2001/REC-SVG-20010904/DTD/svg10.dtd">
<svg version="1.0" xmlns="http://www.w3.org/2000/svg"
 width="200.000000pt" height="200.000000pt" viewBox="0 0 200.000000 200.000000"
 preserveAspectRatio="xMidYMid meet">

<g transform="translate(0.000000,200.000000) scale(0.100000,-0.100000)"
fill="#000000" stroke="none">
<path d="M1243 1455 c-20 -25 -43 -45 -49 -45 -6 0 -19 11 -28 25 -24 37 -71
34 -105 -6 -96 -113 -103 -119 -121 -109 -46 25 -92 -7 -105 -73 -23 -111 -45
-144 -45 -67 0 31 -5 43 -26 56 -23 16 -28 16 -58 1 l-34 -16 -6 38 c-3 21
-17 47 -30 60 -21 20 -33 23 -78 19 -100 -9 -236 -92 -284 -174 -70 -119 -5
-216 120 -179 26 7 28 6 21 -11 -17 -40 -18 -140 -2 -171 21 -41 76 -65 135
-61 l47 3 6 -70 5 -70 2 56 c2 62 8 74 29 58 9 -8 13 -8 13 0 0 6 21 16 46 22
32 8 58 25 85 52 l38 40 10 -24 c15 -40 36 -51 88 -47 48 3 48 3 45 -27 -8
-92 -19 -341 -15 -345 14 -15 22 37 16 109 -6 80 -5 84 13 77 40 -17 52 -17
90 -1 36 15 41 15 70 -1 45 -25 80 -12 148 57 33 32 61 57 64 55 2 -3 0 -51
-6 -108 -5 -57 -8 -105 -7 -107 2 -1 8 0 14 4 7 4 11 53 11 131 0 69 5 134 10
145 13 24 50 25 51 2 0 -11 3 -13 6 -5 8 20 33 14 43 -10 l9 -23 7 23 c9 30
45 37 84 17 l33 -17 -5 -69 c-3 -38 -1 -66 3 -63 5 3 9 37 9 76 0 64 2 70 19
65 13 -3 31 8 59 37 59 62 121 145 128 171 8 32 -12 65 -39 65 -14 0 -32 12
-45 30 -14 18 -35 31 -57 36 -19 3 -35 7 -35 9 0 1 7 17 16 35 24 48 30 115
12 142 -10 15 -12 31 -7 44 5 14 2 29 -8 44 -13 18 -21 21 -49 15 -31 -5 -34
-4 -34 19 0 46 -10 56 -54 56 -28 0 -54 -8 -79 -25 -43 -30 -52 -27 -61 16 -9
45 -23 59 -62 59 -27 0 -40 -8 -71 -45z m113 -2 c12 -53 15 -61 28 -66 8 -3
30 6 50 19 67 46 129 41 125 -10 -3 -45 0 -47 44 -44 39 3 42 1 42 -22 0 -21
-4 -25 -27 -22 -38 5 -81 -21 -129 -77 -34 -40 -46 -48 -60 -40 -27 14 -62 11
-88 -7 -22 -16 -25 -16 -51 0 -59 34 -108 9 -151 -77 -17 -34 -33 -64 -35 -66
-1 -2 -15 6 -30 18 -29 23 -92 28 -125 11 -24 -13 -24 -14 6 95 15 51 23 101
19 117 -4 20 0 29 15 37 11 6 34 33 51 60 18 27 44 54 58 61 25 11 29 9 53
-19 31 -38 52 -39 76 -5 36 52 53 64 88 64 30 0 35 -4 41 -27z m-748 -165 c19
-19 14 -62 -22 -176 -63 -196 -66 -208 -52 -228 12 -16 16 -14 50 17 30 28 40
47 56 111 26 105 67 188 93 188 18 0 19 -5 14 -56 -3 -34 -20 -86 -41 -131
-38 -79 -44 -107 -24 -119 32 -20 149 172 183 301 10 39 22 75 27 82 13 16 38
5 38 -16 0 -41 -56 -206 -105 -309 -59 -124 -99 -172 -140 -172 -34 0 -65 17
-65 35 0 21 -8 19 -42 -10 -16 -14 -38 -25 -49 -25 -28 0 -75 26 -83 45 -20
53 11 161 94 326 39 76 39 99 2 99 -33 0 -112 -48 -136 -81 -19 -28 -21 -62
-4 -89 10 -15 9 -22 -6 -39 -23 -25 -61 -34 -86 -21 -31 17 -35 54 -10 105 47
97 261 210 308 163z m1030 -62 c5 -45 -60 -167 -115 -215 -25 -23 -50 -41 -54
-41 -15 0 -10 -47 5 -60 27 -22 60 -8 79 35 38 81 92 117 133 90 39 -25 32
-66 -18 -111 -24 -20 -35 -34 -25 -30 10 3 23 6 28 6 5 0 30 19 54 41 25 23
48 39 51 36 19 -19 -129 -187 -165 -187 -31 0 -61 18 -61 35 0 20 -7 19 -37
-5 -14 -11 -37 -20 -51 -20 -33 0 -72 37 -72 68 0 15 -4 22 -12 18 -7 -3 -21
-9 -30 -12 -14 -5 -18 -18 -18 -53 0 -25 -9 -64 -19 -87 -20 -44 -92 -120
-123 -130 -30 -9 -50 15 -46 57 l3 37 -41 -45 c-36 -38 -47 -44 -75 -41 -44 4
-47 25 -16 117 l23 70 -22 -5 c-15 -4 -26 1 -38 17 -15 21 -16 22 -34 6 -23
-21 -56 -22 -72 -2 -19 22 -5 102 26 148 31 47 103 84 133 67 25 -13 35 -44
22 -69 -13 -23 -14 -61 -3 -61 21 0 84 82 113 145 17 39 38 78 47 88 16 18 47
23 56 9 3 -5 -15 -53 -39 -107 -25 -55 -45 -103 -45 -107 0 -11 52 10 74 30
10 9 38 56 62 105 38 74 48 87 69 87 34 0 32 -14 -15 -117 -48 -103 -48 -119
-4 -97 25 12 35 26 50 76 20 68 71 153 127 211 28 30 42 38 64 35 23 -2 29 -9
31 -32z"/>
<path d="M1538 1142 c-28 -30 -58 -84 -58 -104 0 -16 31 21 67 80 30 51 26 62
-9 24z"/>
<path d="M938 959 c-25 -14 -24 -59 0 -59 23 0 52 30 52 53 0 19 -26 22 -52 6z"/>
<path d="M1612 958 c-30 -30 -5 -37 29 -8 23 19 23 19 4 20 -12 0 -26 -5 -33
-12z"/>
<path d="M1198 872 c-19 -4 -21 -15 -9 -46 6 -17 9 -15 21 13 14 35 13 39 -12
33z"/>
<path d="M1102 766 c-13 -32 -21 -64 -19 -70 7 -20 48 75 45 102 -3 23 -7 18
-26 -32z"/>
<path d="M1264 804 c-4 -10 -16 -41 -26 -68 -10 -27 -17 -51 -14 -53 8 -9 46
60 52 95 7 37 -2 55 -12 26z"/>
<path d="M1482 680 c0 -14 2 -19 5 -12 2 6 2 18 0 25 -3 6 -5 1 -5 -13z"/>
<path d="M1410 602 c0 -29 4 -52 10 -52 6 0 7 19 3 48 -8 64 -13 66 -13 4z"/>
<path d="M592 570 c0 -19 2 -27 5 -17 2 9 2 25 0 35 -3 9 -5 1 -5 -18z"/>
</g>
</svg>
